<?xml version="1.0"?>
<svg xmlns="http://www.w3.org/2000/svg" xmlns:xlink="http://www.w3.org/1999/xlink" xmlns:svgjs="http://svgjs.com/svgjs" version="1.1" width="512" height="512" x="0" y="0" viewBox="0 0 512 512" style="enable-background:new 0 0 512 512" xml:space="preserve"><g>
<g xmlns="http://www.w3.org/2000/svg">
	<g>
		<path d="M489.5,23.5C477.094,23.5,467,33.594,467,46v9.282L45,171.163V166c0-12.407-10.093-22.5-22.5-22.5S0,153.594,0,166v180    c0,12.407,10.093,22.5,22.5,22.5S45,358.407,45,346v-5.163l15,4.119V391c0,53.762,43.738,97.5,97.5,97.5    c51.263,0,93.413-39.768,97.219-90.074L467,456.718V466c0,12.407,10.094,22.5,22.5,22.5S512,478.407,512,466V46    C512,33.594,501.906,23.5,489.5,23.5z M30,346c0,4.136-3.364,7.5-7.5,7.5S15,350.136,15,346V166c0-4.136,3.364-7.5,7.5-7.5    s7.5,3.365,7.5,7.5V346z M157.5,473.5c-45.491,0-82.5-37.009-82.5-82.5v-41.925l15,4.119V391c0,37.22,30.28,67.5,67.5,67.5    c28.711,0,54.338-18.25,63.771-45.412c1.359-3.913-0.711-8.187-4.625-9.545c-3.911-1.357-8.186,0.711-9.545,4.625    c-7.339,21.133-27.272,35.333-49.601,35.333c-28.949,0-52.5-23.551-52.5-52.5v-33.687l134.915,37.048    C238.143,438.297,201.864,473.5,157.5,473.5z M467,441.163l-75-20.595V146.825c0-4.142-3.357-7.5-7.5-7.5s-7.5,3.358-7.5,7.5    v269.624l-272-74.691V225.635c0-4.142-3.358-7.5-7.5-7.5c-4.142,0-7.5,3.358-7.5,7.5v112.003l-45-12.357V186.719l45-12.357v21.273    c0,4.142,3.358,7.5,7.5,7.5c4.142,0,7.5-3.358,7.5-7.5v-25.392l272-74.691v21.273c0,4.142,3.357,7.5,7.5,7.5s7.5-3.358,7.5-7.5    V91.433l75-20.595V441.163z M497,466c0,4.136-3.364,7.5-7.5,7.5s-7.5-3.364-7.5-7.5V46c0-4.136,3.364-7.5,7.5-7.5    s7.5,3.365,7.5,7.5V466z" fill="#a57dd1" data-original="#000000" style=""/>
	</g>
</g>
<g xmlns="http://www.w3.org/2000/svg">
</g>
<g xmlns="http://www.w3.org/2000/svg">
</g>
<g xmlns="http://www.w3.org/2000/svg">
</g>
<g xmlns="http://www.w3.org/2000/svg">
</g>
<g xmlns="http://www.w3.org/2000/svg">
</g>
<g xmlns="http://www.w3.org/2000/svg">
</g>
<g xmlns="http://www.w3.org/2000/svg">
</g>
<g xmlns="http://www.w3.org/2000/svg">
</g>
<g xmlns="http://www.w3.org/2000/svg">
</g>
<g xmlns="http://www.w3.org/2000/svg">
</g>
<g xmlns="http://www.w3.org/2000/svg">
</g>
<g xmlns="http://www.w3.org/2000/svg">
</g>
<g xmlns="http://www.w3.org/2000/svg">
</g>
<g xmlns="http://www.w3.org/2000/svg">
</g>
<g xmlns="http://www.w3.org/2000/svg">
</g>
</g></svg>
